
<svg xmlns="http://www.w3.org/2000/svg" xmlns:xlink="http://www.w3.org/1999/xlink" viewBox="0 0 700 728.68"><defs><style>.cls-1,.cls-10,.cls-11,.cls-12,.cls-13,.cls-14,.cls-15,.cls-16,.cls-17,.cls-18,.cls-19,.cls-20,.cls-21,.cls-22,.cls-23,.cls-24,.cls-25,.cls-26,.cls-27,.cls-28,.cls-29,.cls-30,.cls-31,.cls-32,.cls-33,.cls-43,.cls-49,.cls-6,.cls-68,.cls-9{fill:none;}.cls-2,.cls-64{fill:#9c7761;}.cls-3,.cls-66{fill:#253858;}.cls-4{isolation:isolate;}.cls-5{fill:#00875a;}.cls-6{stroke:#ebecf0;}.cls-10,.cls-11,.cls-12,.cls-13,.cls-14,.cls-15,.cls-16,.cls-17,.cls-18,.cls-19,.cls-20,.cls-21,.cls-22,.cls-23,.cls-24,.cls-25,.cls-26,.cls-27,.cls-28,.cls-29,.cls-30,.cls-31,.cls-32,.cls-33,.cls-43,.cls-49,.cls-6,.cls-68,.cls-9{stroke-miterlimit:10;}.cls-11,.cls-12,.cls-6{stroke-width:39.39px;}.cls-7{clip-path:url(#clip-path);}.cls-8{fill:#dfe1e5;}.cls-64,.cls-66,.cls-8{mix-blend-mode:multiply;}.cls-10,.cls-9{stroke-width:34.75px;}.cls-9{stroke:url(#linear-gradient);}.cls-10{stroke:#b2d4ff;}.cls-11{stroke:#fff;}.cls-12{stroke:url(#linear-gradient-2);}.cls-13,.cls-43{stroke:#4c9aff;}.cls-13,.cls-14,.cls-15,.cls-16,.cls-17,.cls-18,.cls-19,.cls-20,.cls-21,.cls-22,.cls-23,.cls-24,.cls-25,.cls-26,.cls-27,.cls-28,.cls-29,.cls-30,.cls-31,.cls-32,.cls-33,.cls-68{stroke-linecap:round;}.cls-13,.cls-14,.cls-15,.cls-16,.cls-17,.cls-18,.cls-19,.cls-20,.cls-21,.cls-22,.cls-23,.cls-24,.cls-25,.cls-26,.cls-27,.cls-28,.cls-29,.cls-30,.cls-31,.cls-32,.cls-33{stroke-width:5.79px;}.cls-14{stroke:url(#linear-gradient-3);}.cls-15{stroke:url(#linear-gradient-4);}.cls-16{stroke:#ffab00;}.cls-17{stroke:url(#linear-gradient-5);}.cls-18{stroke:url(#linear-gradient-6);}.cls-19{stroke:url(#linear-gradient-7);}.cls-20{stroke:url(#linear-gradient-8);}.cls-21{stroke:url(#linear-gradient-9);}.cls-22{stroke:url(#linear-gradient-10);}.cls-23{stroke:url(#linear-gradient-11);}.cls-24{stroke:url(#linear-gradient-12);}.cls-25{stroke:url(#linear-gradient-13);}.cls-26{stroke:url(#linear-gradient-14);}.cls-27{stroke:url(#linear-gradient-15);}.cls-28{stroke:url(#linear-gradient-16);}.cls-29{stroke:url(#linear-gradient-17);}.cls-30{stroke:url(#linear-gradient-18);}.cls-31{stroke:url(#linear-gradient-19);}.cls-32{stroke:url(#linear-gradient-20);}.cls-33{stroke:#ffc400;}.cls-34{fill:#72594b;}.cls-35{fill:#ff991f;}.cls-36{fill:#42526e;}.cls-37{fill:#ff8b00;}.cls-38{fill:url(#New_Gradient_Swatch_6);}.cls-39{fill:#fff;}.cls-40{fill:#57d9a3;}.cls-41{fill:#2db07c;}.cls-42{fill:url(#linear-gradient-21);}.cls-43,.cls-68{stroke-width:2px;}.cls-44{fill:#2684ff;}.cls-45{fill:#0065ff;}.cls-46{fill:#0049b0;}.cls-47{opacity:0.5;}.cls-48{fill:url(#linear-gradient-22);}.cls-49{stroke:#36b37e;stroke-width:5.52px;}.cls-50{fill:url(#linear-gradient-23);}.cls-51{fill:url(#linear-gradient-24);}.cls-52{fill:#ffc400;}.cls-53{fill:#c1c7d0;}.cls-54{fill:#344563;}.cls-55{fill:url(#linear-gradient-25);}.cls-56{fill:url(#linear-gradient-26);}.cls-57{fill:#a27f68;}.cls-58{fill:url(#linear-gradient-27);}.cls-59{fill:#b5917c;}.cls-60{fill:#9d7761;}.cls-61{fill:url(#linear-gradient-28);}.cls-62{fill:url(#linear-gradient-29);}.cls-63{clip-path:url(#clip-path-2);}.cls-64,.cls-66{opacity:0.4;}.cls-65{clip-path:url(#clip-path-3);}.cls-67{fill:#79e2f2;}.cls-68{stroke:#79e2f2;}</style><clipPath id="clip-path"><path class="cls-1" d="M206.29,602.69C170,576.33,138.6,553.56,138.6,508.58s31.37-67.75,67.69-94.11c39.35-28.55,83.94-60.92,83.94-126s-44.59-97.43-83.94-126C170,136.14,138.6,113.38,138.6,68.39H99.21c0,65.07,44.6,97.43,84,126,36.32,26.36,67.68,49.12,67.68,94.11s-31.36,67.75-67.68,94.11c-39.35,28.55-83.95,60.92-83.95,126s44.6,97.43,84,126c36.32,26.36,67.68,49.12,67.68,94.11h39.39C290.23,663.61,245.64,631.25,206.29,602.69Z"/></clipPath><linearGradient id="linear-gradient" x1="194.72" y1="288.49" x2="194.72" y2="68.4" gradientUnits="userSpaceOnUse"><stop offset="0.24" stop-color="#b2d4ff"/><stop offset="0.27" stop-color="#b2d4ff" stop-opacity="0.93"/><stop offset="0.39" stop-color="#b2d4ff" stop-opacity="0.69"/><stop offset="0.5" stop-color="#b2d4ff" stop-opacity="0.48"/><stop offset="0.61" stop-color="#b2d4ff" stop-opacity="0.31"/><stop offset="0.72" stop-color="#b2d4ff" stop-opacity="0.17"/><stop offset="0.82" stop-color="#b2d4ff" stop-opacity="0.08"/><stop offset="0.91" stop-color="#b2d4ff" stop-opacity="0.02"/><stop offset="0.98" stop-color="#b2d4ff" stop-opacity="0"/></linearGradient><linearGradient id="linear-gradient-2" x1="194.72" y1="288.49" x2="194.72" y2="68.39" gradientUnits="userSpaceOnUse"><stop offset="0" stop-color="#ebecf0"/><stop offset="1" stop-color="#ebecf0" stop-opacity="0"/></linearGradient><linearGradient id="linear-gradient-3" x1="191.83" y1="596.62" x2="226.6" y2="596.62" gradientUnits="userSpaceOnUse"><stop offset="0" stop-color="#4c9aff"/><stop offset="0.47" stop-color="#4a99ff"/><stop offset="0.64" stop-color="#4394ff"/><stop offset="0.77" stop-color="#378cff"/><stop offset="0.87" stop-color="#2680ff"/><stop offset="0.95" stop-color="#1171ff"/><stop offset="1" stop-color="#0065ff"/></linearGradient><linearGradient id="linear-gradient-4" x1="213.39" y1="574.61" x2="249.17" y2="574.61" xlink:href="#linear-gradient-3"/><linearGradient id="linear-gradient-5" x1="191.83" y1="552.6" x2="232.74" y2="552.6" xlink:href="#linear-gradient-3"/><linearGradient id="linear-gradient-6" x1="191.83" y1="530.59" x2="271.21" y2="530.59" xlink:href="#linear-gradient-3"/><linearGradient id="linear-gradient-7" x1="239.32" y1="508.58" x2="273.43" y2="508.58" xlink:href="#linear-gradient-3"/><linearGradient id="linear-gradient-8" x1="191.83" y1="486.57" x2="271.21" y2="486.57" xlink:href="#linear-gradient-3"/><linearGradient id="linear-gradient-9" x1="191.83" y1="464.56" x2="263.65" y2="464.56" xlink:href="#linear-gradient-3"/><linearGradient id="linear-gradient-10" x1="226.31" y1="442.55" x2="249.16" y2="442.55" xlink:href="#linear-gradient-3"/><linearGradient id="linear-gradient-11" x1="191.83" y1="425.06" x2="211.75" y2="425.06" xlink:href="#linear-gradient-3"/><linearGradient id="linear-gradient-12" x1="191.83" y1="442.55" x2="217.97" y2="442.55" xlink:href="#linear-gradient-3"/><linearGradient id="linear-gradient-13" x1="5870.87" y1="354.52" x2="5928.21" y2="354.52" gradientTransform="matrix(-1, 0, 0, 1, 6068.49, 0)" xlink:href="#linear-gradient-3"/><linearGradient id="linear-gradient-14" x1="5870.87" y1="332.51" x2="5942.7" y2="332.51" gradientTransform="matrix(-1, 0, 0, 1, 6068.49, 0)" xlink:href="#linear-gradient-3"/><linearGradient id="linear-gradient-15" x1="5870.87" y1="310.5" x2="5950.26" y2="310.5" gradientTransform="matrix(-1, 0, 0, 1, 6068.49, 0)" xlink:href="#linear-gradient-3"/><linearGradient id="linear-gradient-16" x1="5918.18" y1="288.49" x2="5952.48" y2="288.49" gradientTransform="matrix(-1, 0, 0, 1, 6068.49, 0)" xlink:href="#linear-gradient-3"/><linearGradient id="linear-gradient-17" x1="159.63" y1="288.49" x2="197.62" y2="288.49" xlink:href="#linear-gradient-3"/><linearGradient id="linear-gradient-18" x1="5870.87" y1="266.48" x2="5950.26" y2="266.48" gradientTransform="matrix(-1, 0, 0, 1, 6068.49, 0)" xlink:href="#linear-gradient-3"/><linearGradient id="linear-gradient-19" x1="5870.87" y1="244.47" x2="5942.7" y2="244.47" gradientTransform="matrix(-1, 0, 0, 1, 6068.49, 0)" xlink:href="#linear-gradient-3"/><linearGradient id="linear-gradient-20" x1="5870.87" y1="222.46" x2="5928.21" y2="222.46" gradientTransform="matrix(-1, 0, 0, 1, 6068.49, 0)" xlink:href="#linear-gradient-3"/><linearGradient id="New_Gradient_Swatch_6" x1="149.09" y1="249.33" x2="216.04" y2="249.33" gradientUnits="userSpaceOnUse"><stop offset="0" stop-color="#ffab00"/><stop offset="1" stop-color="#ffe380"/></linearGradient><linearGradient id="linear-gradient-21" x1="222.21" y1="384.8" x2="393.62" y2="213.4" gradientUnits="userSpaceOnUse"><stop offset="0.03" stop-color="#dfe1e5"/><stop offset="0.42" stop-color="#f4f5f7"/><stop offset="0.93" stop-color="#f4f5f7"/><stop offset="1" stop-color="#f4f5f7"/></linearGradient><linearGradient id="linear-gradient-22" x1="486.88" y1="621.67" x2="628.13" y2="480.41" gradientUnits="userSpaceOnUse"><stop offset="0" stop-color="#fff0b2"/><stop offset="0.28" stop-color="#fff0b2" stop-opacity="0.6"/><stop offset="0.53" stop-color="#fff0b2" stop-opacity="0.28"/><stop offset="0.7" stop-color="#fff0b2" stop-opacity="0.08"/><stop offset="0.78" stop-color="#fff0b2" stop-opacity="0"/></linearGradient><linearGradient id="linear-gradient-23" x1="513.9" y1="695.87" x2="608.98" y2="695.87" gradientUnits="userSpaceOnUse"><stop offset="0.34" stop-color="#00875a"/><stop offset="1" stop-color="#57d9a3"/></linearGradient><linearGradient id="linear-gradient-24" x1="574.51" y1="670.17" x2="640.83" y2="670.17" gradientUnits="userSpaceOnUse"><stop offset="0.24" stop-color="#36b37e"/><stop offset="1" stop-color="#57d9a3"/></linearGradient><linearGradient id="linear-gradient-25" x1="-5563.87" y1="-5094.54" x2="-5556.11" y2="-5094.54" gradientTransform="matrix(0.11, -0.99, -0.99, -0.11, -3970.25, -5494.21)" gradientUnits="userSpaceOnUse"><stop offset="0" stop-color="#a27f68"/><stop offset="0.8" stop-color="#8c715d"/></linearGradient><linearGradient id="linear-gradient-26" x1="-791.47" y1="672.46" x2="-784.16" y2="665.15" gradientTransform="translate(1169.17)" gradientUnits="userSpaceOnUse"><stop offset="0.2" stop-color="#9c7761"/><stop offset="1" stop-color="#a27f68"/></linearGradient><linearGradient id="linear-gradient-27" x1="-757.24" y1="618.8" x2="-757.24" y2="604.69" gradientTransform="translate(1169.17)" gradientUnits="userSpaceOnUse"><stop offset="0.31" stop-color="#8c715d"/><stop offset="1" stop-color="#42526e"/></linearGradient><linearGradient id="linear-gradient-28" x1="407.86" y1="724.57" x2="407.86" y2="630.39" gradientUnits="userSpaceOnUse"><stop offset="0" stop-color="#0065ff"/><stop offset="1" stop-color="#172b4d"/></linearGradient><linearGradient id="linear-gradient-29" x1="-766.35" y1="689.19" x2="-737.8" y2="689.19" gradientTransform="translate(1169.17)" gradientUnits="userSpaceOnUse"><stop offset="0" stop-color="#0049b0"/><stop offset="1" stop-color="#0065ff"/></linearGradient><clipPath id="clip-path-2"><path class="cls-2" d="M454.88,608.65c-3,2.43-6.13,5.2-9.32,8.37-2.29,2.27-4.38,4.52-6.27,6.69a33,33,0,0,1-8.41,1c-4.45-.07-5.73-1-11.15-1.19a45.05,45.05,0,0,0-7.54.4,40.44,40.44,0,0,0-10.06,2.84,23.52,23.52,0,0,0-.79,2.68,25.38,25.38,0,0,0,.81,13.72,8.57,8.57,0,0,0-.79,5.79,32.37,32.37,0,0,1,1.45,5c.12.73.17,1.34.2,1.74a46.59,46.59,0,0,0,14,.13,47.4,47.4,0,0,0,5.08-1c-.09-.74-.17-1.49-.26-2.23a8.86,8.86,0,0,0,1.12-1.06,9.71,9.71,0,0,0,1.13-1.6,8.06,8.06,0,0,0,0-5.63l2.63-9.86c10.64,1,16.14-2.67,18.17-4.29,2.24-1.79,3.89-4,7-8.12a94.22,94.22,0,0,0,6.39-10.33Z"/></clipPath><clipPath id="clip-path-3"><path class="cls-3" d="M433.74,624.6c-1.11.09-2.07.1-2.86.09-4.45-.07-5.73-1-11.15-1.19a45.05,45.05,0,0,0-7.54.4,40.44,40.44,0,0,0-10.06,2.84,23.52,23.52,0,0,0-.79,2.68c-1.29,5.55-.77,16.61-.61,20.43a13.24,13.24,0,0,0,1.55,5.77,51.62,51.62,0,0,0,14.71.13,47.4,47.4,0,0,0,5.08-1c0-.28,2.36-1.4,3-4.46,1.12-5,.84-13,1.38-15a34.09,34.09,0,0,0,8.48-.43Z"/></clipPath></defs><title>cobra id pages_bitbucket_left</title><g class="cls-4"><g id="Layer_2" data-name="Layer 2"><path class="cls-5" d="M128.67,685.56c12.78-39.53,5.46-75.89,5.46-75.89s-31.28,19-53.64,52.19c-10.7-36.64-31-66.15-31-66.15s-17.2,26.6-16.2,66.73A253.71,253.71,0,0,0,0,631.62v97.06L154.45,728c31.48-28.67,36.12-64,36.12-64S159.11,669.22,128.67,685.56Z"/><path class="cls-6" d="M118.91,508.58c0,110.05,151.63,110.05,151.63,220.1"/><path class="cls-6" d="M270.54,288.49c0,110-151.63,110-151.63,220.09"/><g class="cls-7"><path class="cls-8" d="M165.69,602.69c36.33-26.36,67.69-49.13,67.69-94.11S202,440.83,165.69,414.47c-39.34-28.55-83.94-60.92-83.94-126,0-47.22,23.49-77.21,51.41-101,10.55-9,43.31,15.89,37.48,20.35-28,21.43-49.5,43.44-49.5,80.68,0,45,31.37,67.75,67.69,94.11,39.35,28.55,83.94,60.92,83.94,126s-44.6,97.43-83.94,126c-36.32,26.36-67.69,49.12-67.69,94.11H81.75C81.75,663.61,126.35,631.25,165.69,602.69Z"/><rect class="cls-8" x="234.42" y="284.52" width="70.47" height="25.98"/></g><path class="cls-9" d="M118.91,288.49c0-110,151.63-110,151.63-220.09"/><path class="cls-10" d="M270.54,508.59c0-110-151.63-110-151.63-220.1"/><path class="cls-10" d="M118.91,728.68c0-110,151.63-110,151.63-220.09"/><path class="cls-11" d="M118.91,68.39c0,110.05,151.63,110.05,151.63,220.1"/><path class="cls-12" d="M118.91,68.39c0,110.05,151.63,110.05,151.63,220.1"/><line class="cls-13" x1="194.72" y1="705.83" x2="121.13" y2="705.83"/><line class="cls-13" x1="194.72" y1="683.82" x2="128.69" y2="683.82"/><line class="cls-13" x1="194.72" y1="661.81" x2="143.18" y2="661.81"/><line class="cls-13" x1="194.72" y1="639.8" x2="165.55" y2="639.8"/><line class="cls-14" x1="194.72" y1="596.62" x2="223.71" y2="596.62"/><line class="cls-15" x1="216.29" y1="574.61" x2="246.27" y2="574.61"/><line class="cls-16" x1="243.98" y1="552.6" x2="260.76" y2="552.6"/><line class="cls-17" x1="194.72" y1="552.6" x2="229.85" y2="552.6"/><line class="cls-18" x1="194.72" y1="530.59" x2="268.32" y2="530.59"/><line class="cls-19" x1="242.22" y1="508.58" x2="270.54" y2="508.58"/><line class="cls-16" x1="194.72" y1="508.58" x2="227.1" y2="508.58"/><line class="cls-20" x1="194.72" y1="486.57" x2="268.32" y2="486.57"/><line class="cls-21" x1="194.72" y1="464.56" x2="260.75" y2="464.56"/><line class="cls-22" x1="229.2" y1="442.55" x2="246.27" y2="442.55"/><line class="cls-23" x1="194.72" y1="425.06" x2="208.86" y2="425.06"/><line class="cls-24" x1="194.72" y1="442.55" x2="215.07" y2="442.55"/><line class="cls-25" x1="194.72" y1="354.52" x2="143.17" y2="354.52"/><line class="cls-26" x1="194.72" y1="332.51" x2="128.69" y2="332.51"/><line class="cls-27" x1="194.72" y1="310.5" x2="121.13" y2="310.5"/><line class="cls-28" x1="147.42" y1="288.49" x2="118.91" y2="288.49"/><line class="cls-29" x1="194.72" y1="288.49" x2="162.53" y2="288.49"/><line class="cls-30" x1="194.72" y1="266.48" x2="121.13" y2="266.48"/><line class="cls-31" x1="194.72" y1="244.47" x2="128.69" y2="244.47"/><line class="cls-32" x1="194.72" y1="222.46" x2="143.18" y2="222.46"/><line class="cls-33" x1="229.99" y1="244.47" x2="259.65" y2="244.47"/><line class="cls-33" x1="229.99" y1="266.48" x2="267.21" y2="266.48"/><line class="cls-33" x1="229.99" y1="288.49" x2="269.43" y2="288.49"/><path class="cls-34" d="M215.51,231.28c-.62.39-1.67-.36-2.18-.95a3.27,3.27,0,0,1-.77-2.38c.14-1.12.84-1.23,1.36-2.71s.24-2.49.57-2.58.74.62.94,1.31c.38,1.28-.32,1.76-.11,3.2.17,1.15.68,1.26.69,2.45C216,230,216,231,215.51,231.28Z"/><path class="cls-34" d="M126.17,281.45s-3.46,2.77-3.69,3.92.13,1.91-.33,2.08-.86-1.53-1.15-1.64-.55.18-.76-.31a4,4,0,0,1-.55-1.67,10.67,10.67,0,0,1,1.45-4.23c.7-.79,2.06-2.51,3.17-2.72s1.94,3.63,1.94,3.63Z"/><path class="cls-34" d="M123.62,277.52c.61-.41,1.68.32,2.2.91a3.21,3.21,0,0,1,.83,2.37c-.11,1.13-.82,1.26-1.31,2.76s-.2,2.51-.52,2.6-.75-.6-1-1.29c-.42-1.28.28-1.78,0-3.23-.2-1.15-.71-1.25-.74-2.44C123.14,278.78,123.12,277.85,123.62,277.52Z"/><path class="cls-34" d="M168.13,234c.23.81-.56,1.39-.61,3.23a7,7,0,0,0,.61,3c-4.85,1.87-9,2-10,.35a6.11,6.11,0,0,1-.36-3.23c.06-1.58.11-2.86.77-3.79C160.48,230.81,167.51,231.86,168.13,234Z"/><path class="cls-35" d="M123.72,276.94a2.55,2.55,0,0,0,1,2.78,2.42,2.42,0,0,0,1.82.24l12-16.53,16.15-12.34-5.22-8.27a95.18,95.18,0,0,0-15,13.33S125.7,268.32,123.72,276.94Z"/><path class="cls-36" d="M185.73,307.15a10.31,10.31,0,0,1-4.8.91,11.9,11.9,0,0,1-4-.88c-.13,3.26-.1,5.91,0,7.72.11,3.89.42,6.64-.47,10.45-.19.82-.39,1.48-.53,1.91l4.18,1.32.9-.42.91,1,10.59,3.4a.89.89,0,0,0,1.27-.75h0l-3.87-2.45c-4-2.55-6.22-6.7-5.62-10.65.4-2.64.82-5.56,1.06-7.67C185.48,309.71,185.61,308.42,185.73,307.15Z"/><path class="cls-34" d="M213.05,227.32s3.49-2.69,3.75-3.82-.09-1.9.37-2.06.82,1.54,1.11,1.65.55-.17.75.33a4.2,4.2,0,0,1,.51,1.66,10.72,10.72,0,0,1-1.52,4.18c-.72.77-2.11,2.46-3.21,2.64s-1.85-3.65-1.85-3.65Z"/><path class="cls-36" d="M154,333.3a32.55,32.55,0,0,1-3.83,0c.53,3,1.1,5.46,1.52,7.12.9,3.56,1.73,6,1.69,9.72,0,.8-.06,1.45-.1,1.87l4.12.37.74-.57,1,.7,10.45,1c.65.06,1.17-.42,1-.95l-4.06-1.47a27.23,27.23,0,0,1-7.25-13,26.5,26.5,0,0,1-.62-5.42A32.17,32.17,0,0,1,154,333.3Z"/><path class="cls-37" d="M152.35,270.83a15.25,15.25,0,0,1,.8-1.77,14.91,14.91,0,0,1,1.26-2,19.26,19.26,0,0,0,2,.31c.89.09,1.54.11,1.69.11,1,0,4.79.39,15.19,1.56a28.45,28.45,0,0,1,16.3,14.58,160.82,160.82,0,0,1-1.52,37.83c-.51.43-9.92,1.9-15.07-1.59-.22-2.3,3.67-23.93,4.28-29.19-2.47-1-4.15-2.25-6.75-3.19s-1.2-.48-3.68-1.32c0,0-3.22,16.51-3.22,27.73,0,6.09.13,25.76-.2,31.65-.33.27-12.8,2.25-13.2,1.93-1.13-3.18,1-33.28,1.77-35.15a104.29,104.29,0,0,1-2.54-16.55s-1-12.11.91-19.29C150.82,274.94,151.91,272,152.35,270.83Z"/><path class="cls-38" d="M149.09,243.08a34.2,34.2,0,0,1,5.18-2.59c4.62-1.84,10.14-3.07,28.28-1.35l11.11,1.08a144.29,144.29,0,0,0,12.42-8q3.18-2.29,6-4.58a4,4,0,0,1,2.41.79A4.09,4.09,0,0,1,216,231a80.79,80.79,0,0,1-20.67,16.78c-2.88.74-5.94,1.44-9.17,2.06-3.56.69-7,1.21-10.17,1.61a7.17,7.17,0,0,1,.78,3.36,8.31,8.31,0,0,1-1.55,4.3c-1.07,1.79-1.76,4.94.19,10.91a44.35,44.35,0,0,1-12.21.86,72.45,72.45,0,0,1-11.14-1.81,49.54,49.54,0,0,0,.38-7.25,53.4,53.4,0,0,0-1-9A78.69,78.69,0,0,0,149.09,243.08Z"/><path class="cls-34" d="M165.71,220.88a21.91,21.91,0,0,1,3.57,5.58c.09.26.11.38.63.66s1.22.39,1.09.78-.9.89-1,1.23l.74,5.36-2.15.84-7.29,2.85c.09-.3,2.75-7.57,2.73-8s-.1-1.29.38-1.51,1.25-4.47,1.48-5a2.19,2.19,0,0,0,0-1.51C165.81,221.37,165.71,220.88,165.71,220.88Z"/><path class="cls-39" d="M153.55,234.68c.82.85,2.67,2.75,5.38,2.66,3-.11,5.84-2.59,5.94-4.77,0-1-.47-1.64-.24-3.35.12-.83.41-2,.86-2s.79,1.15,1.1,1.09.28-1.36.29-2.11c0-3.28.68-3.46.41-4.76-.53-2.49-3.25-3.82-3.59-4-3.39-1.6-6.86.24-7.42.54-4.15,2.21-6,7.37-5.31,11.56A9.81,9.81,0,0,0,153.55,234.68Z"/><line class="cls-33" x1="256.79" y1="221.37" x2="224.43" y2="221.37"/><path class="cls-5" d="M314.93,668.1c.3,7.2,4.15,6.8,5.35,14.84,2.4,16.09-11.09,30.29-16.88,36.39a117.29,117.29,0,0,1-9.55,9.35H270.49c-5.07-6.07-8.1-15.87-7.34-24,.89-9.61,6.52-12.18,5.22-20.62-1.45-9.35-10.34-11-9.77-17.92.53-6.48,8.12-6.27,11.76-14.88,4.18-9.89-3.41-15.86,1.17-23.91,4-7,10.74-4.4,14.71-11.47,4.52-8-2.34-14.56,2.26-22,3.26-5.28,10.46-7.66,16.22-7,9.92,1.2,17,11.67,17,20.11,0,8.81-8,13-5.85,19.79,1.92,6,8.85,4.76,10.91,10.28C330.05,645.87,314.33,653.41,314.93,668.1Z"/><path class="cls-40" d="M331.45,682,342,615c-9.8,3.94-17.8,0-23.12,7-6.63,8.66,3.71,18.39-2.33,31.95-4,9-10.25,10.63-17,15.59L290.53,727Z"/><path class="cls-40" d="M414.08,591.3l6.25-39.54c-.18.08-.37.14-.55.23-12.38,5.91-8.87,20.35-21.66,27.12a17.41,17.41,0,0,1-6.11,2l-6.59,41.69Z"/><path class="cls-40" d="M457,583.81c.92-9.36-1.68-19.65-8.81-26.29l-28.78,31.6Z"/><path class="cls-40" d="M446.28,556c-6.2-4.73-15.42-7.32-23.31-5.14L417.09,588Z"/><path class="cls-40" d="M382.42,626.06l7.09-44.84c-6.78-.12-12.54-3.67-20.56.52-12.89,6.74-7.94,21.08-21.85,30.57a25.74,25.74,0,0,1-2.38,1.45l-10.27,65Z"/><path class="cls-40" d="M387.72,623.88l40.39-5.7c3.24-10.21,17.05-9.15,24.36-20.59a30.5,30.5,0,0,0,4.17-11.25L416.8,592Z"/><path class="cls-40" d="M427.58,620.73l-42.45,6-48.38,53.11,55.1-7.78c11.78-19.53,38.66-16.26,41.75-30.48C435.43,633.2,426.8,628.92,427.58,620.73Z"/><path class="cls-40" d="M292.83,728.06l73.42-10.36c8.18-5,15.59-11.76,19.83-21.17,4.81-10.65.69-13.85,4.33-21.79l-56.25,7.94Z"/><path class="cls-40" d="M339,728.68A117.5,117.5,0,0,0,360.11,721L306,728.68Z"/><path class="cls-40" d="M292.18,676.71c-11.5,14.69-15.39,40.35-4.59,52h.18l9-56.86A37.13,37.13,0,0,0,292.18,676.71Z"/><path class="cls-41" d="M416.85,589.48l2.54-.36,28.78-31.6c-.35-.32-.7-.63-1.07-.94s-.54-.42-.82-.63l-29.19,32Z"/><polygon class="cls-41" points="387.72 623.88 416.8 591.96 413.91 592.37 414.08 591.3 385.42 622.76 385.19 624.24 387.72 623.88"/><polygon class="cls-41" points="331.45 682.02 290.53 726.95 290.3 728.42 292.83 728.06 334.16 682.68 331.28 683.09 331.45 682.02"/><polygon class="cls-41" points="382.42 626.06 334.45 678.72 334.22 680.2 336.75 679.84 385.13 626.73 382.25 627.13 382.42 626.06"/><path class="cls-40" d="M292.27,728.68H306L360.11,721c2.07-1,4.13-2.12,6.14-3.34l-73.42,10.36Z"/><path class="cls-41" d="M299.61,669.51c-.94.7-1.89,1.45-2.85,2.31l-9,56.86H289l1.58-1.73Z"/><polygon class="cls-41" points="290.3 728.42 290.53 726.95 288.95 728.68 292.27 728.68 292.83 728.06 290.3 728.42"/><path class="cls-41" d="M334.16,682.68l56.25-7.94a25.7,25.7,0,0,1,1.23-2.35l.21-.33-55.1,7.78Z"/><path class="cls-41" d="M334.45,678.72l10.27-65A23.78,23.78,0,0,1,342,615l-10.59,67Z"/><polygon class="cls-41" points="334.45 678.72 331.45 682.02 331.28 683.09 334.16 682.68 336.75 679.84 334.22 680.2 334.45 678.72"/><path class="cls-41" d="M385.42,622.77,392,581.08a17.71,17.71,0,0,1-2.5.14l-7.09,44.84Z"/><path class="cls-41" d="M385.13,626.73l42.45-6a12.5,12.5,0,0,1,.36-2c.05-.19.12-.37.17-.56l-40.39,5.7Z"/><polygon class="cls-41" points="385.19 624.24 385.42 622.76 382.42 626.06 382.25 627.13 385.13 626.73 387.72 623.88 385.19 624.24"/><path class="cls-41" d="M417.09,588,423,550.81a19.34,19.34,0,0,0-2.64,1l-6.25,39.54Z"/><path class="cls-41" d="M416.8,592l39.84-5.62c.14-.83.25-1.68.34-2.53l-37.59,5.31Z"/><polygon class="cls-41" points="416.8 591.96 419.39 589.12 416.85 589.48 417.09 588 414.08 591.3 413.91 592.37 416.8 591.96"/><rect class="cls-42" x="217.52" y="258.25" width="219.43" height="43.05" rx="5.19"/><line class="cls-43" x1="266.79" y1="279.78" x2="371.49" y2="279.78"/><rect class="cls-44" x="398.35" y="267.12" width="24.19" height="24.19" rx="12.1"/><path class="cls-45" d="M222.62,258.25h2.54a0,0,0,0,1,0,0v43a0,0,0,0,1,0,0h-2.92a4.72,4.72,0,0,1-4.72-4.72V263.36A5.1,5.1,0,0,1,222.62,258.25Z"/><path class="cls-46" d="M243.35,273.48a2.27,2.27,0,0,0,.69.12,2.25,2.25,0,1,0-.69-.12Z"/><path class="cls-46" d="M251.8,271.88a2.21,2.21,0,0,0,0,4.42,2.5,2.5,0,0,0,.61-.09,2.21,2.21,0,0,0-.61-4.33Z"/><path class="cls-46" d="M244.79,283.94a2.32,2.32,0,0,0-.75-.14,2.27,2.27,0,0,0-.69.12,2.21,2.21,0,1,0,1.44,0Z"/><g class="cls-47"><path class="cls-46" d="M243.52,284v0h0V273.08h1.06v8a5.64,5.64,0,0,1,3.36-1.81c3.31-.66,3.33-3,3.33-3.83a2.1,2.1,0,0,1,0-.28l1,.13v.16c0,2.67-1.42,4.31-4.19,4.86-3.25.65-3.54,2.9-3.56,3.45v.14Z"/></g><polygon class="cls-48" points="553.39 405.67 466.46 601.24 679.29 578.74 553.39 405.67"/><path class="cls-44" d="M609.79,485.23a5.2,5.2,0,1,0-9.28,3.23,14.66,14.66,0,0,1,3.08,8.59V568.4h2V497.63a14.81,14.81,0,0,1,3.08-9.18A5.16,5.16,0,0,0,609.79,485.23Z"/><path class="cls-49" d="M575.69,728.68V665.55a14.48,14.48,0,0,0-14.48-14.49h0a14.48,14.48,0,0,1-14.49-14.48V593.34"/><path class="cls-49" d="M604.66,536.66v32.1a14.48,14.48,0,0,1-14.48,14.49h0a14.48,14.48,0,0,0-14.49,14.48V677"/><path class="cls-50" d="M520.91,690.9c9.6,18.57,24.62,23.57,37.53,37.77h20.14a58.17,58.17,0,0,0-7-17.59,55.55,55.55,0,0,0-17.91-19.35c-9.88-6.23-16.79-5.47-26.21-12.52a48.13,48.13,0,0,1-13.54-16.16A65.49,65.49,0,0,0,520.91,690.9Z"/><path class="cls-51" d="M640.83,617.56a48,48,0,0,1-13.54,16.15c-9.43,7.06-16.34,6.3-26.22,12.53a55.53,55.53,0,0,0-17.9,19.35c-14.52,23.89-6.77,51.58-5.08,57.19a77.48,77.48,0,0,1,10.36-29.15c14.16-23.16,33.73-25.73,45.37-48.23A65.49,65.49,0,0,0,640.83,617.56Z"/><circle class="cls-49" cx="546.72" cy="580.22" r="15.54"/><circle class="cls-52" cx="546.72" cy="580.22" r="8.85"/><path class="cls-35" d="M620.1,519.63C615.46,530.82,609.29,535,604.59,533s-6.15-9.23-1.51-20.42,21.16-27,21.16-27S624.74,508.43,620.1,519.63Z"/><path class="cls-35" d="M606.1,512.58c-4.64-11.2-21.16-27-21.16-27s-.5,22.87,4.14,34.07S599.89,535,604.59,533,610.74,523.77,606.1,512.58Z"/><path class="cls-35" d="M606.51,513.55c-8.57,8.57-10,15.86-6.42,19.45s10.88,2.15,19.45-6.42S636.4,496.7,636.4,496.7,615.08,505,606.51,513.55Z"/><path class="cls-35" d="M613.29,517.34c-11.15,4.77-15.2,11-13.2,15.66s9.3,6,20.44,1.28,26.77-21.47,26.77-21.47S624.43,512.57,613.29,517.34Z"/><path class="cls-37" d="M597.61,517.34c11.14,4.77,15.2,11,13.2,15.66s-9.3,6-20.44,1.28-26.77-21.47-26.77-21.47S586.47,512.57,597.61,517.34Z"/><path class="cls-37" d="M603.12,513.09c-8.57-8.57-30.34-16.39-30.34-16.39s8.28,21.31,16.85,29.88,15.86,10,19.45,6.42C612.94,529.15,611.69,521.66,603.12,513.09Z"/><path class="cls-35" d="M604.59,492.66s-9.54,21.68-9.54,34.23,4.27,19,9.54,19,9.54-6.39,9.54-19S604.59,492.66,604.59,492.66Z"/><polygon class="cls-40" points="604.59 548.34 619.91 534.21 589.27 534.21 604.59 548.34"/><rect class="cls-53" x="405.42" y="716.8" width="5.62" height="4.94"/><path class="cls-54" d="M421.19,728.68h5.56c-.07-.42.26-.61.58-.6a.66.66,0,0,1,.56.6c1.81,0,3.62,0,5.42,0l1.66,0a2.31,2.31,0,0,0-1.49-2.16l-2.24-.8c-.19-.06-3.3-1.22-3.78-2.2-.35-.69-.55-1.63.11-5.06.21-1.11.53-2.58,1-4.29l-7.41.17a62.61,62.61,0,0,1,.77,7.52C422.05,724.32,421.32,726.63,421.19,728.68Z"/><path class="cls-54" d="M404.43,728.68H410c-.06-.42.26-.57.58-.56a.61.61,0,0,1,.56.56h7.08a2.26,2.26,0,0,0-1.49-2.12l-2.24-.79c-.54-.25-2.14-.64-2.7-1.46-1.11-1.3,0-8.27.45-10.08-3.1.06-4.38-.07-7.49,0,.33,2.52.58,5.28.68,8.25C405.5,724.61,404.5,726.78,404.43,728.68Z"/><path class="cls-55" d="M456,611.34c-.82-.55-3.78,1.82,0-3.23a4.71,4.71,0,0,1,2.53-2.28c1.7-.53,2.61.88,4.14.18.82-.38,1-1,2-1.13.67-.09,1.49.08,1.57.41s-.86.66-2.36,1.8-1.3,1.42-2.57,2.23c-.53.33-.89.48-2,1.2a6,6,0,0,1-.87.52C457.84,611.28,456.69,611.79,456,611.34Z"/><rect class="cls-53" x="462.16" y="596.93" width="5.19" height="13.36" transform="translate(590.59 -147.73) rotate(47.1)"/><path class="cls-56" d="M379.4,665.87a9.23,9.23,0,0,0-.81,5,10.08,10.08,0,0,0,1.1,3.13c.35.77.62,1.19,1,1.24s.87-.35,1.17-.65a4.31,4.31,0,0,0,1-1.75c.5-1.79,0-3.63-.29-5.92-.46-3.33-.16-4.69-.66-4.81C381.66,662.07,381,662.39,379.4,665.87Z"/><path class="cls-57" d="M382.21,663c-.91-.29-.89-3.93-2.44,1.91a4.54,4.54,0,0,0-.21,3.27c.62,1.59,2.23,1.43,2.61,3,.21.85-.15,1.34.33,2.15.33.56.94,1.08,1.24.93s0-1-.05-2.84.29-1.83.13-3.26c-.07-.6-.16-1-.31-2.24a6.21,6.21,0,0,0-.12-1C383.25,664.42,383,663.24,382.21,663Z"/><path class="cls-2" d="M416.6,625.25a8.74,8.74,0,0,1-8.46.78,14.27,14.27,0,0,0,1-8.59l7.09-.69Z"/><path class="cls-58" d="M409.34,618.8a7,7,0,0,1-3.33-2.75,7.9,7.9,0,0,1,2.54-10.32c3.86-2.36,9.43-.28,10.17,2.17a2.13,2.13,0,0,1,.08.75,16.38,16.38,0,0,1-2.74,7.54Z"/><path class="cls-59" d="M418.72,607.9a18.23,18.23,0,0,0,.83,2.63c.23.57.43,1,.48,1.09a15.1,15.1,0,0,0,1.73,2.75l-1.43.63c0,1.67-.09,3.34-.14,5a16.26,16.26,0,0,1-6,1.71c-1.78.13-3.59.27-4.7-.85-.46-.47-.49-.85-1.4-2.15a18.82,18.82,0,0,0-1.53-1.9,3.31,3.31,0,0,0,3.43,0,2.73,2.73,0,0,0,.78-1c.33-.82,0-1.43.38-1.79a1,1,0,0,1,.95-.13c.88.36,1.05,2.29,1.05,2.29h0l1.31-.34a5.23,5.23,0,0,1,.2-2.54c.43-1.26,1.08-1.43,1.32-2.62s-.26-1.68.13-2.25C416.38,608.09,417,607.72,418.72,607.9Z"/><path class="cls-60" d="M407.21,633.31a14.44,14.44,0,0,1-4.13,6.78c-1.45,1.54-2.49,2.71-3.89,4a70.26,70.26,0,0,1-6.47,5.38,20.79,20.79,0,0,1-1.31,3.81c-1.34,3-2.76,4.26-4.57,7a36,36,0,0,0-3.26,6.09c-1.36-.83-2.45-.61-3.81-1.44,1.45-5.06,3.33-12,6.57-18.34a72,72,0,0,1,6.84-10.85c2.48-3.25,5.36-7.27,9.17-9l0,0a7.35,7.35,0,0,1,4.19-.58l.17,0h0A12.43,12.43,0,0,1,407.21,633.31Z"/><path class="cls-2" d="M457.82,604.17a12.9,12.9,0,0,0-3.22,5,13.63,13.63,0,0,0-.62,3.76c-.07,1-.05,1.5.27,1.73s.93,0,1.34-.21a5.4,5.4,0,0,0,1.77-1.42c1.33-1.67,1.84-3.82,2.71-6.35,1.27-3.69,2.21-5,1.84-5.34S461,601.17,457.82,604.17Z"/><path class="cls-2" d="M457.93,607.86l5.37-2.8a.76.76,0,0,0,.44-.88.56.56,0,0,0-.36-.3,1.87,1.87,0,0,0,1.1-.73,1.62,1.62,0,0,0,.24-.57.78.78,0,0,0,.71-.57.7.7,0,0,0-.1-.48,4.78,4.78,0,0,0-3.67-.34,4.26,4.26,0,0,0-1.11.62Z"/><path class="cls-61" d="M412,656.57c-.51-.51-4.79-1.34-9.7-1,0,.36-2.24,6-2.19,10.74.1,8.24,2.93,23.39,2.93,23.39s1.12,33.2,1.41,34.64c.38.28,8.71.15,8.71.15s1.23-20.49,1.2-22.68c-.1-6.34-.45-8.86-.06-15.37,0-.68.08-1.24.1-1.6s.14-.95.23-1.65c.41-3.12.56-5.56.64-6.54.79-10.16.48-14.64-2.07-18.62-.11-.16-.2-.29-.25-.38A10.14,10.14,0,0,0,412,656.57Z"/><path class="cls-62" d="M421.53,654.2a73.59,73.59,0,0,1,5,11.58c.45,1.35.85,2.93,1.71,6.07.58,2.14,2,7.25,2.51,9.62,1.1,4.81.61,11.57-.44,24.9-.44,5.68-1.11,17.47-1.11,17.47s-6.81,1.12-8,.73c-.51-1.82-1.19-22-1.51-25.13-.29-2.87-.27-8.71-.27-8.71s-3.53-10.24-5.27-12.43c-1.54-1.95-5-3.79-8-7.7a15.74,15.74,0,0,1-3.16-6.91c-.53-3.67.2-6.37,0-8.07a40.83,40.83,0,0,1,18.52-1.42Z"/><path class="cls-2" d="M454.88,608.65c-3,2.43-6.13,5.2-9.32,8.37-2.29,2.27-4.38,4.52-6.27,6.69a33,33,0,0,1-8.41,1c-4.45-.07-5.73-1-11.15-1.19a45.05,45.05,0,0,0-7.54.4,40.44,40.44,0,0,0-10.06,2.84,23.52,23.52,0,0,0-.79,2.68,25.38,25.38,0,0,0,.81,13.72,8.57,8.57,0,0,0-.79,5.79,32.37,32.37,0,0,1,1.45,5c.12.73.17,1.34.2,1.74a46.59,46.59,0,0,0,14,.13,47.4,47.4,0,0,0,5.08-1c-.09-.74-.17-1.49-.26-2.23a8.86,8.86,0,0,0,1.12-1.06,9.71,9.71,0,0,0,1.13-1.6,8.06,8.06,0,0,0,0-5.63l2.63-9.86c10.64,1,16.14-2.67,18.17-4.29,2.24-1.79,3.89-4,7-8.12a94.22,94.22,0,0,0,6.39-10.33Z"/><g class="cls-63"><path class="cls-2" d="M402.35,656.21h20.37c-.31-1.24-.61-2.48-.91-3.72a88.19,88.19,0,0,1-9.33.83,87.05,87.05,0,0,1-10.13-.2Z"/><path class="cls-64" d="M427.42,634.54c-1.79-1.09-6.69,1.8-7.88,5.78-.76,2.56.65,3.39.12,6.22-1,5.11-6.38,6.79-5.8,8.34s7.23,2.18,11-1.21c2.61-2.36,2.83-6.2,3.26-13.89C428.35,635.6,427.94,634.86,427.42,634.54Z"/></g><path class="cls-3" d="M433.74,624.6c-1.11.09-2.07.1-2.86.09-4.45-.07-5.73-1-11.15-1.19a45.05,45.05,0,0,0-7.54.4,40.44,40.44,0,0,0-10.06,2.84,23.52,23.52,0,0,0-.79,2.68c-1.29,5.55-.77,16.61-.61,20.43a13.24,13.24,0,0,0,1.55,5.77,51.62,51.62,0,0,0,14.71.13,47.4,47.4,0,0,0,5.08-1c0-.28,2.36-1.4,3-4.46,1.12-5,.84-13,1.38-15a34.09,34.09,0,0,0,8.48-.43Z"/><g class="cls-65"><path class="cls-3" d="M402.35,656.21h20.37c-.31-1.24-.61-2.48-.91-3.72a88.19,88.19,0,0,1-9.33.83,87.05,87.05,0,0,1-10.13-.2Z"/><path class="cls-66" d="M427.42,634.54c-1.79-1.09-6.69,1.8-7.88,5.78-.76,2.56.65,3.39.12,6.22-1,5.11-6.38,6.79-5.8,8.34s7.23,2.18,11-1.21c2.61-2.36,2.83-6.2,3.26-13.89C428.35,635.6,427.94,634.86,427.42,634.54Z"/></g><rect class="cls-53" x="465.88" y="596.39" width="10.09" height="3.71" transform="translate(588.62 -153.96) rotate(47.1)"/><path class="cls-3" d="M407.21,633.31c-.71,3.09-1.56,5.21-3.14,6.89-1.44,1.53-3.8,4.13-5.2,5.44,0,0-6.32-5.43-7.51-7.41.47-2.08,7.18-9.77,11-11.52l0,0a7.35,7.35,0,0,1,4.19-.58l.17,0h0A12.43,12.43,0,0,1,407.21,633.31Z"/><path class="cls-67" d="M376.15,192.53a1.23,1.23,0,0,0,.87-.36l6.23-6.23a1.23,1.23,0,0,0-1.73-1.74l-6.23,6.24a1.23,1.23,0,0,0,.86,2.09Z"/><path class="cls-67" d="M382.39,186.3a1.23,1.23,0,0,0,1.22-1.23,1.24,1.24,0,0,0-.36-.87L377,178a1.23,1.23,0,0,0-1.74,1.73l6.24,6.24A1.23,1.23,0,0,0,382.39,186.3Z"/><path class="cls-67" d="M360.6,186.3a1.22,1.22,0,0,0,.86-.36l6.24-6.24A1.23,1.23,0,1,0,366,178l-6.23,6.23a1.23,1.23,0,0,0,0,1.74,1.21,1.21,0,0,0,.86.35Z"/><path class="cls-67" d="M366.83,192.53a1.23,1.23,0,0,0,.87-2.09l-6.24-6.24a1.23,1.23,0,0,0-1.73,1.74l6.23,6.23A1.24,1.24,0,0,0,366.83,192.53Z"/><path class="cls-67" d="M66.52,402.26l-5.37-5.37a1.22,1.22,0,0,1,1.73-1.73l5.37,5.37,5.37-5.37a1.22,1.22,0,0,1,1.73,1.73L70,402.26l5.37,5.37a1.22,1.22,0,0,1-1.7,1.76l0,0L68.25,404l-5.37,5.37a1.22,1.22,0,0,1-1.73-1.73Z"/><path class="cls-67" d="M424.83,475.54l6.23-6.23a1.23,1.23,0,0,1,1.74,0l6.23,6.23a1.23,1.23,0,0,1-1.7,1.77l0,0-5.37-5.37-5.37,5.37a1.23,1.23,0,0,1-1.73-1.74Z"/><line class="cls-68" x1="443.43" y1="476.54" x2="452.51" y2="476.54"/><path class="cls-67" d="M686.46,571.16l-5.37-5.37a1.22,1.22,0,0,1,1.73-1.73l5.37,5.37,5.37-5.37a1.22,1.22,0,0,1,1.73,1.73l-5.37,5.37,5.37,5.37a1.22,1.22,0,0,1-1.7,1.76l0,0-5.37-5.37-5.37,5.37a1.22,1.22,0,0,1-1.73-1.73Z"/></g></g></svg>