
<svg xmlns="http://www.w3.org/2000/svg" xmlns:xlink="http://www.w3.org/1999/xlink" viewBox="0 0 700 728.68"><defs><style>.cls-1,.cls-27,.cls-28,.cls-30,.cls-31,.cls-32,.cls-33,.cls-34,.cls-35,.cls-36,.cls-37,.cls-38,.cls-39,.cls-40,.cls-41,.cls-42,.cls-43,.cls-60,.cls-7{fill:none;}.cls-2{fill:#253858;}.cls-3{fill:url(#New_Gradient_Swatch_5);}.cls-4{isolation:isolate;}.cls-5{opacity:0.35;}.cls-6{fill:url(#linear-gradient);}.cls-7{stroke:#4c9aff;stroke-width:2px;}.cls-27,.cls-28,.cls-30,.cls-31,.cls-32,.cls-33,.cls-34,.cls-35,.cls-36,.cls-37,.cls-38,.cls-39,.cls-40,.cls-41,.cls-42,.cls-43,.cls-57,.cls-58,.cls-60,.cls-7{stroke-miterlimit:10;}.cls-8{fill:#ffab00;}.cls-9{fill:#0049b0;}.cls-10{opacity:0.5;}.cls-11{fill:#36b37e;}.cls-12{fill:url(#linear-gradient-2);}.cls-13{fill:url(#linear-gradient-3);}.cls-14{fill:url(#linear-gradient-4);}.cls-15{fill:url(#linear-gradient-5);}.cls-16{fill:url(#linear-gradient-6);}.cls-17{fill:url(#linear-gradient-7);}.cls-18{fill:url(#linear-gradient-8);}.cls-19{fill:url(#linear-gradient-9);}.cls-20{fill:#00875a;}.cls-21{fill:url(#linear-gradient-10);}.cls-22{fill:#57d9a3;}.cls-23{fill:#ebecf0;}.cls-24{clip-path:url(#clip-path);}.cls-25{fill:#dfe1e5;}.cls-25,.cls-55{mix-blend-mode:multiply;}.cls-26{fill:url(#New_Gradient_Swatch_24);}.cls-27,.cls-30{stroke:#fff;}.cls-27,.cls-28{stroke-width:34.75px;}.cls-28{stroke:url(#linear-gradient-11);}.cls-29{fill:#b2d4ff;}.cls-30,.cls-31{stroke-width:39.39px;}.cls-31{stroke:url(#linear-gradient-12);}.cls-32,.cls-33,.cls-34,.cls-35,.cls-36,.cls-37,.cls-38,.cls-39,.cls-40,.cls-41,.cls-42,.cls-43{stroke-linecap:round;stroke-width:5.79px;}.cls-32{stroke:url(#linear-gradient-13);}.cls-33{stroke:url(#linear-gradient-14);}.cls-34{stroke:url(#linear-gradient-15);}.cls-35{stroke:#ffc400;}.cls-36{stroke:url(#linear-gradient-16);}.cls-37{stroke:url(#linear-gradient-17);}.cls-38{stroke:url(#linear-gradient-18);}.cls-39{stroke:url(#linear-gradient-19);}.cls-40{stroke:#ffab00;}.cls-41{stroke:url(#linear-gradient-20);}.cls-42{stroke:url(#linear-gradient-21);}.cls-43{stroke:url(#linear-gradient-22);}.cls-44{fill:#172b4d;}.cls-45{fill:#ffe380;}.cls-46{clip-path:url(#clip-path-2);}.cls-47{clip-path:url(#clip-path-3);}.cls-48{fill:url(#New_Gradient_Swatch_5-2);}.cls-49{fill:#5e6c84;}.cls-50{fill:#ff991f;}.cls-51{fill:#9c7761;}.cls-52{fill:#b5917c;}.cls-53{fill:url(#New_Gradient_Swatch_5-3);}.cls-54{clip-path:url(#clip-path-4);}.cls-55{opacity:0.49;fill:url(#New_Gradient_Swatch_7);}.cls-56{fill:url(#New_Gradient_Swatch_5-5);}.cls-57,.cls-58{stroke:#172b4d;stroke-width:1.03px;}.cls-57{fill:url(#linear-gradient-23);}.cls-58{fill:url(#linear-gradient-24);}.cls-59{fill:#7a869a;}.cls-60{stroke:#36b37e;stroke-width:5.52px;}.cls-61{fill:#ffc400;}.cls-62{fill:#79e2f2;}.cls-63{fill:#79f2c0;}.cls-64{fill:#2db07c;}.cls-65{fill:url(#linear-gradient-25);}.cls-66{fill:#2684ff;}.cls-67{fill:#0065ff;}</style><linearGradient id="New_Gradient_Swatch_5" x1="-5017.38" y1="557.52" x2="-4991.57" y2="557.52" gradientTransform="matrix(-1, 0, 0, 1, -4500.25, 0)" gradientUnits="userSpaceOnUse"><stop offset="0" stop-color="#ff991f"/><stop offset="1" stop-color="#ffc400"/></linearGradient><linearGradient id="linear-gradient" x1="438.28" y1="443.65" x2="609.69" y2="272.24" gradientUnits="userSpaceOnUse"><stop offset="0.03" stop-color="#dfe1e5"/><stop offset="0.42" stop-color="#f4f5f7"/><stop offset="0.93" stop-color="#f4f5f7"/><stop offset="1" stop-color="#f4f5f7"/></linearGradient><linearGradient id="linear-gradient-2" x1="238.32" y1="772.96" x2="238.32" y2="630.55" gradientUnits="userSpaceOnUse"><stop offset="0.16" stop-color="#36b37e"/><stop offset="1" stop-color="#79f2c0"/></linearGradient><linearGradient id="linear-gradient-3" x1="210.57" y1="772.96" x2="210.57" y2="630.55" xlink:href="#linear-gradient-2"/><linearGradient id="linear-gradient-4" x1="196.31" y1="772.96" x2="196.31" y2="630.55" xlink:href="#linear-gradient-2"/><linearGradient id="linear-gradient-5" x1="270.04" y1="772.96" x2="270.04" y2="630.55" xlink:href="#linear-gradient-2"/><linearGradient id="linear-gradient-6" x1="196.58" y1="772.96" x2="196.58" y2="630.55" xlink:href="#linear-gradient-2"/><linearGradient id="linear-gradient-7" x1="264.76" y1="772.96" x2="264.76" y2="630.55" xlink:href="#linear-gradient-2"/><linearGradient id="linear-gradient-8" x1="257.68" y1="772.96" x2="257.68" y2="630.55" xlink:href="#linear-gradient-2"/><linearGradient id="linear-gradient-9" x1="245.01" y1="772.96" x2="245.01" y2="630.55" xlink:href="#linear-gradient-2"/><linearGradient id="linear-gradient-10" x1="237.67" y1="681.94" x2="440.99" y2="616.65" gradientUnits="userSpaceOnUse"><stop offset="0" stop-color="#00875a"/><stop offset="0.06" stop-color="#099062"/><stop offset="0.32" stop-color="#2bb07e"/><stop offset="0.57" stop-color="#43c692"/><stop offset="0.8" stop-color="#52d49f"/><stop offset="0.98" stop-color="#57d9a3"/></linearGradient><clipPath id="clip-path"><path class="cls-1" d="M409,728.68c9.79-28.37,35.08-46.73,63.37-67.26,39.35-28.56,83.95-60.92,83.95-126s-44.6-97.43-83.95-126c-36.32-26.36-67.68-49.13-67.68-94.11H365.29c0,65.06,44.59,97.43,83.94,126,36.32,26.36,67.69,49.12,67.69,94.1s-31.37,67.75-67.69,94.11c-33.52,24.33-70.85,51.42-81.17,99.14Z"/></clipPath><linearGradient id="New_Gradient_Swatch_24" x1="-3225.15" y1="3675.51" x2="-3168" y2="3675.51" gradientTransform="matrix(0.79, -0.46, 0.62, 0.59, 770.21, -3104.29)" gradientUnits="userSpaceOnUse"><stop offset="0" stop-color="#c1c7d0"/><stop offset="1" stop-color="#c1c7d0" stop-opacity="0.1"/></linearGradient><linearGradient id="linear-gradient-11" x1="460.8" y1="535.44" x2="460.8" y2="315.34" gradientUnits="userSpaceOnUse"><stop offset="0.24" stop-color="#b2d4ff"/><stop offset="0.27" stop-color="#b2d4ff" stop-opacity="0.93"/><stop offset="0.39" stop-color="#b2d4ff" stop-opacity="0.69"/><stop offset="0.5" stop-color="#b2d4ff" stop-opacity="0.48"/><stop offset="0.61" stop-color="#b2d4ff" stop-opacity="0.31"/><stop offset="0.72" stop-color="#b2d4ff" stop-opacity="0.17"/><stop offset="0.82" stop-color="#b2d4ff" stop-opacity="0.08"/><stop offset="0.91" stop-color="#b2d4ff" stop-opacity="0.02"/><stop offset="0.98" stop-color="#b2d4ff" stop-opacity="0"/></linearGradient><linearGradient id="linear-gradient-12" x1="460.8" y1="535.43" x2="460.8" y2="315.34" gradientUnits="userSpaceOnUse"><stop offset="0" stop-color="#ebecf0"/><stop offset="1" stop-color="#ebecf0" stop-opacity="0"/></linearGradient><linearGradient id="linear-gradient-13" x1="457.9" y1="711.51" x2="529.73" y2="711.51" gradientUnits="userSpaceOnUse"><stop offset="0" stop-color="#4c9aff"/><stop offset="1" stop-color="#2684ff"/></linearGradient><linearGradient id="linear-gradient-14" x1="492.38" y1="689.5" x2="515.24" y2="689.5" xlink:href="#linear-gradient-13"/><linearGradient id="linear-gradient-15" x1="457.9" y1="672.01" x2="477.83" y2="672.01" xlink:href="#linear-gradient-13"/><linearGradient id="linear-gradient-16" x1="4129.86" y1="601.47" x2="4187.2" y2="601.47" gradientTransform="matrix(-1, 0, 0, 1, 4593.55, 0)" xlink:href="#linear-gradient-13"/><linearGradient id="linear-gradient-17" x1="4129.86" y1="579.46" x2="4201.68" y2="579.46" gradientTransform="matrix(-1, 0, 0, 1, 4593.55, 0)" xlink:href="#linear-gradient-13"/><linearGradient id="linear-gradient-18" x1="4129.86" y1="557.45" x2="4209.24" y2="557.45" gradientTransform="matrix(-1, 0, 0, 1, 4593.55, 0)" xlink:href="#linear-gradient-13"/><linearGradient id="linear-gradient-19" x1="4177.16" y1="535.44" x2="4211.46" y2="535.44" gradientTransform="matrix(-1, 0, 0, 1, 4593.55, 0)" xlink:href="#linear-gradient-13"/><linearGradient id="linear-gradient-20" x1="4129.86" y1="513.43" x2="4209.24" y2="513.43" gradientTransform="matrix(-1, 0, 0, 1, 4593.55, 0)" xlink:href="#linear-gradient-13"/><linearGradient id="linear-gradient-21" x1="4129.86" y1="491.42" x2="4201.68" y2="491.42" gradientTransform="matrix(-1, 0, 0, 1, 4593.55, 0)" xlink:href="#linear-gradient-13"/><linearGradient id="linear-gradient-22" x1="4129.86" y1="469.41" x2="4187.19" y2="469.41" gradientTransform="matrix(-1, 0, 0, 1, 4593.55, 0)" xlink:href="#linear-gradient-13"/><clipPath id="clip-path-2"><path class="cls-2" d="M503.06,581.19a4.07,4.07,0,0,1-2.23,1.25,3.94,3.94,0,0,1-2-.16,25.75,25.75,0,0,1-3,2.21,11.42,11.42,0,0,1-4.94,1.93,2.76,2.76,0,0,1-1.84-.33,2.66,2.66,0,0,1-1-1l0-1.32c.76-.58,1.57-1.24,2.39-2a29.15,29.15,0,0,0,3.21-3.45l.42-.78.3-2.48,8.29-1C502.72,576.4,502.89,578.79,503.06,581.19Z"/></clipPath><clipPath id="clip-path-3"><path class="cls-2" d="M486.39,572.54a3.64,3.64,0,0,1-2.27.4,3.53,3.53,0,0,1-1.68-.73,23.69,23.69,0,0,1-3.21,1,10.5,10.5,0,0,1-4.78.19,2.56,2.56,0,0,1-1.47-.83,2.41,2.41,0,0,1-.57-1.2l.37-1.13c.82-.27,1.7-.59,2.62-1a27.65,27.65,0,0,0,3.76-2l.58-.54,1-2,7.36,1.59Z"/></clipPath><linearGradient id="New_Gradient_Swatch_5-2" x1="-5009.77" y1="525.28" x2="-4988.04" y2="525.28" xlink:href="#New_Gradient_Swatch_5"/><linearGradient id="New_Gradient_Swatch_5-3" x1="-5015.5" y1="562.38" x2="-4990.3" y2="537.18" xlink:href="#New_Gradient_Swatch_5"/><clipPath id="clip-path-4"><path class="cls-3" d="M517.13,552.54c-2.74.14-5.7.17-8.85,0-2-.08-3.9-.22-5.71-.4h-1.46c.24,1.48.48,3.23.64,5.19.13,1.57.19,2.92.22,4s0,1.57,0,1.83c0,1.43.05,3.75.26,7.7a10.42,10.42,0,0,1-3.8,1.33,10.2,10.2,0,0,1-4.53-.41q-1.26-9.67-2.53-19.35l-.08-4.92a5.5,5.5,0,0,1,2.86-4,6.47,6.47,0,0,1,3.51-.67Z"/></clipPath><linearGradient id="New_Gradient_Swatch_7" x1="-9666.68" y1="-3052.49" x2="-9651.42" y2="-3030.06" gradientTransform="matrix(-0.56, -0.83, -0.83, 0.56, -7438.89, -5735.14)" gradientUnits="userSpaceOnUse"><stop offset="0" stop-color="#ffc400"/><stop offset="1" stop-color="#fff0b2"/></linearGradient><linearGradient id="New_Gradient_Swatch_5-5" x1="-5034.24" y1="529.74" x2="-5010.7" y2="529.74" xlink:href="#New_Gradient_Swatch_5"/><linearGradient id="linear-gradient-23" x1="-4989.95" y1="510.6" x2="-4984.24" y2="504.89" gradientTransform="matrix(-1, 0, 0, 1, -4500.25, 0)" gradientUnits="userSpaceOnUse"><stop offset="0" stop-color="#f4f5f7"/><stop offset="0.02" stop-color="#f4f5f7" stop-opacity="0.96"/><stop offset="0.14" stop-color="#f6f7f8" stop-opacity="0.71"/><stop offset="0.27" stop-color="#f7f8fa" stop-opacity="0.49"/><stop offset="0.39" stop-color="#f8f9fa" stop-opacity="0.32"/><stop offset="0.5" stop-color="#f9fafb" stop-opacity="0.18"/><stop offset="0.61" stop-color="#fafbfc" stop-opacity="0.08"/><stop offset="0.71" stop-color="#fafbfc" stop-opacity="0.02"/><stop offset="0.79" stop-color="#fafbfc" stop-opacity="0"/></linearGradient><linearGradient id="linear-gradient-24" x1="-4987.09" y1="516.14" x2="-4987.09" y2="516.14" xlink:href="#linear-gradient-23"/><linearGradient id="linear-gradient-25" x1="479.07" y1="382.96" x2="650.48" y2="211.55" xlink:href="#linear-gradient"/></defs><title>cobra id pages_bitbucket_right</title><g class="cls-4"><g id="Layer_2" data-name="Layer 2"><g class="cls-5"><rect class="cls-6" x="433.59" y="317.1" width="219.43" height="43.05" rx="5.19"/><line class="cls-7" x1="482.87" y1="338.63" x2="587.56" y2="338.63"/><rect class="cls-8" x="614.42" y="325.97" width="24.19" height="24.19" rx="12.1"/><path class="cls-8" d="M438.69,317.1h2.54a0,0,0,0,1,0,0v43a0,0,0,0,1,0,0h-2.92a4.72,4.72,0,0,1-4.72-4.72V322.21A5.1,5.1,0,0,1,438.69,317.1Z"/><path class="cls-9" d="M459.43,332.32a2,2,0,0,0,.69.12,2,2,0,0,0,.69-.12,2.21,2.21,0,1,0-1.38,0Z"/><path class="cls-9" d="M467.87,330.73a2.21,2.21,0,0,0-.76,4.28,2.33,2.33,0,0,0,.76.14,2.05,2.05,0,0,0,.61-.1,2.2,2.2,0,0,0-.61-4.32Z"/><path class="cls-9" d="M460.86,342.79a2.26,2.26,0,0,0-.74-.14,2.25,2.25,0,1,0,.74.14Z"/><g class="cls-10"><path class="cls-9" d="M459.59,342.82v0h0V331.92h1.06V340a5.58,5.58,0,0,1,3.35-1.81c3.32-.66,3.33-3,3.33-3.83,0-.12,0-.22,0-.28l1,.13a.67.67,0,0,0,0,.16c0,2.67-1.42,4.31-4.18,4.86-3.26.65-3.54,2.9-3.56,3.45v.14Z"/></g></g><path class="cls-1" d="M243.43,721.52l0,0-.48-.46,0,0a.35.35,0,0,0-.48,0l-.06.09a.34.34,0,0,0,0,.34l.36.63.11.18.69,1.21,2.95,5.18h4.4l-6.21-6Z"/><polygon class="cls-11" points="244.67 722.71 270.68 728.68 280.33 728.68 244.65 720.49 243.43 721.52 244.67 722.71"/><path class="cls-11" d="M243.33,720.19l1.32.3,47.49-40.19c-.23-.74-.47-1.47-.73-2.2l-48.16,40.74Z"/><polygon class="cls-11" points="243.41 721.5 243.43 721.52 244.65 720.49 243.33 720.19 243.38 721 243.41 721.5"/><path class="cls-11" d="M242.43,719.54l.82-.7-5.15-86.93c-.72-.15-1.45-.27-2.18-.39L241,717.89Z"/><polygon class="cls-11" points="243.33 720.19 243.25 718.84 242.43 719.54 242.9 720.09 243.33 720.19"/><path class="cls-11" d="M243.13,720.36l-.83.7h.13a.35.35,0,0,1,.48,0l.47,0,0-.81-.43-.1Z"/><path class="cls-11" d="M241.14,719.69l-.1-1.8-60.94-72-.91.7-.76.66,61,72Z"/><polygon class="cls-11" points="242.43 719.54 241.04 717.89 241.14 719.69 242.02 719.89 242.43 719.54"/><polygon class="cls-11" points="242.55 720.01 242.9 720.09 242.43 719.54 242.02 719.89 242.55 720.01"/><polygon class="cls-11" points="243.13 720.36 242.9 720.09 242.55 720.01 242.31 721.06 243.13 720.36"/><path class="cls-11" d="M240.78,720.93l-1.39-1.65-9.14-2.09-77-17.67c0,.74,0,1.47,0,2.21L240,721.63Z"/><polygon class="cls-11" points="241.14 719.69 239.39 719.28 240.78 720.93 241.19 720.58 241.14 719.69"/><polygon class="cls-11" points="241.61 720.24 242.02 719.89 241.14 719.69 241.19 720.58 241.61 720.24"/><polygon class="cls-11" points="242.55 720.01 242.02 719.89 241.61 720.24 242.31 721.06 242.55 720.01"/><polygon class="cls-11" points="241.35 723.28 241.28 721.93 239.96 721.63 231.63 728.68 234.97 728.68 241.35 723.28"/><polygon class="cls-11" points="241.25 721.48 240.78 720.93 239.96 721.63 241.28 721.93 241.25 721.48"/><polygon class="cls-11" points="241.23 721.12 241.19 720.58 240.78 720.93 241.25 721.48 241.23 721.12"/><polygon class="cls-11" points="241.61 720.24 241.19 720.58 241.23 721.12 242.31 721.06 241.61 720.24"/><polygon class="cls-11" points="241.35 723.28 241.68 728.68 243.84 728.68 243.53 723.5 242.84 722.29 242.59 722.23 241.35 723.28"/><polygon class="cls-11" points="242.84 722.29 242.74 722.11 242.59 722.23 242.84 722.29"/><path class="cls-11" d="M242.91,721l0,0,.48.46,0-.5Z"/><path class="cls-11" d="M242.37,721.14l.06-.09h-.13Z"/><polygon class="cls-11" points="242.06 722.11 241.28 721.93 241.35 723.28 242.59 722.23 242.06 722.11"/><path class="cls-11" d="M242.06,722.11l.53.12.14-.12-.36-.63a.34.34,0,0,1,0-.34l-.07-.08Z"/><polygon class="cls-11" points="242.31 721.06 241.48 721.76 241.25 721.48 241.28 721.93 242.06 722.11 242.31 721.06"/><polygon class="cls-11" points="242.31 721.06 241.23 721.12 241.25 721.48 241.48 721.76 242.31 721.06"/><polygon class="cls-12" points="234.97 728.68 241.68 728.68 241.35 723.28 234.97 728.68"/><path class="cls-13" d="M235.92,631.52a71.06,71.06,0,0,0-55.82,14.35l60.94,72Z"/><path class="cls-14" d="M239.39,719.28l-61-72a71.2,71.2,0,0,0-25.19,52.29l77,17.67Z"/><path class="cls-15" d="M280.33,728.68h9.8a71.44,71.44,0,0,0,2-48.38l-47.49,40.19Z"/><path class="cls-16" d="M240,721.63l-86.76-19.9a71.72,71.72,0,0,0,5.15,26.95h73.28Z"/><path class="cls-17" d="M291.41,678.1a71.25,71.25,0,0,0-53.31-46.19l5.15,86.93Z"/><polygon class="cls-18" points="244.67 722.71 250.88 728.68 270.68 728.68 244.67 722.71"/><polygon class="cls-19" points="243.84 728.68 246.48 728.68 243.53 723.5 243.84 728.68"/><path class="cls-20" d="M565.33,668.1c.3,7.2,4.14,6.8,5.34,14.84,2.4,16.09-11.09,30.29-16.88,36.39a117.23,117.23,0,0,1-9.54,9.35H520.89c-5.08-6.07-8.1-15.87-7.35-24,.9-9.61,6.52-12.18,5.22-20.62-1.44-9.35-10.33-11-9.76-17.92.52-6.48,8.12-6.27,11.76-14.88,4.18-9.89-3.42-15.86,1.16-23.91,4-7,10.75-4.4,14.72-11.47,4.52-8-2.34-14.56,2.25-22,3.26-5.28,10.46-7.66,16.22-7,9.92,1.2,17,11.67,17,20.11,0,8.81-8,13-5.85,19.79,1.92,6,8.84,4.76,10.9,10.28C580.45,645.87,564.72,653.41,565.33,668.1Z"/><path class="cls-21" d="M340.13,660.64l-25.84-66.35c17.76-13.25,39.49-20.7,60-18.88l-31.13,93.11Zm-63.36,6.6c1.39,17.06,9.93,31.47,23.77,40.13l0,0,40.14-34.7Zm142.52-62.48c-7.51-15.67-22.58-26.7-42.85-29.13L345.32,668.7ZM330.1,696.28l11.58-21.9-39.29,34C311.49,712.31,324.51,706.87,330.1,696.28Zm8.21-1.21c-2.75,12,7,20.45,19.34,17.17L343,674.62Zm-26-99.28c-14.53,11.39-26.17,26.68-31.91,43.88A70.12,70.12,0,0,0,276.63,665l64.79,5.52Zm47.62,115.72a101.43,101.43,0,0,0,46.34-33.23L345,673.05Zm-14.26-40.58,62.17,5.3a89.4,89.4,0,0,0,12.83-24.29c5.64-16.66,5-32.47-.55-45.38Z"/><path class="cls-22" d="M343.39,672.92l-.39,1.7,14.65,37.62c.44-.12.9-.25,1.35-.41l.93-.32-15-38.46Z"/><path class="cls-22" d="M344.52,671.92l.44,1.13,61.31,5.23c.53-.67,1.06-1.36,1.57-2l-62.17-5.3Z"/><polygon class="cls-22" points="344.52 671.92 343.83 672.52 343.39 672.89 343.39 672.92 344.96 673.05 344.52 671.92"/><path class="cls-22" d="M344.61,670.83l1.06.1,74.45-64.37c-.26-.61-.54-1.21-.83-1.8l-74,63.94Z"/><polygon class="cls-22" points="344.37 671.54 344.52 671.92 345.67 670.92 344.61 670.83 344.37 671.54"/><path class="cls-22" d="M344.52,671.92l-.15-.38-.12.36-1.06-.09.07.08a.27.27,0,0,1,.29.32l.28.31Z"/><path class="cls-22" d="M343.78,670l1.54-1.33,31.12-93.07-1.11-.14c-.34,0-.67,0-1-.08l-31.13,93.11Z"/><polygon class="cls-22" points="344.61 670.83 345.32 668.7 343.78 670.03 344.08 670.79 344.61 670.83"/><polygon class="cls-22" points="344.08 670.79 344.25 671.24 344.37 671.54 344.61 670.83 344.08 670.79"/><polygon class="cls-22" points="343.19 671.81 344.25 671.9 344.37 671.54 344.25 671.24 343.19 671.81"/><path class="cls-22" d="M342.48,670.65l.71-2.13-3.06-7.88-25.84-66.35c-.66.49-1.33,1-2,1.5l29.11,74.77Z"/><polygon class="cls-22" points="343.78 670.03 343.19 668.52 342.48 670.65 343.01 670.7 343.78 670.03"/><polygon class="cls-22" points="343.55 670.74 344.08 670.79 343.78 670.03 343.01 670.7 343.55 670.74"/><polygon class="cls-22" points="344.08 670.79 343.55 670.74 343.19 671.81 344.25 671.24 344.08 670.79"/><path class="cls-22" d="M341.86,671.7l-.44-1.14L276.63,665c0,.73.08,1.47.14,2.2l63.94,5.45Z"/><polygon class="cls-22" points="342.48 670.65 341.42 670.56 341.86 671.7 342.25 671.36 342.48 670.65"/><polygon class="cls-22" points="342.55 671.1 343.01 670.7 342.48 670.65 342.25 671.36 342.55 671.1"/><polygon class="cls-22" points="343.01 670.7 342.55 671.1 343.19 671.81 343.55 670.74 343.01 670.7"/><path class="cls-22" d="M340.71,672.69l-40.14,34.7a15,15,0,0,0,1.82,1l39.29-34,.7-1.34-.08-.21Z"/><polygon class="cls-22" points="342.38 673.04 342.49 672.84 342.3 672.83 342.38 673.04"/><path class="cls-22" d="M343.55,672.21s0,0,0,0l-.15.65.44-.37Z"/><path class="cls-22" d="M343.16,671.91l.1,0-.07-.08Z"/><polygon class="cls-22" points="340.71 672.69 342.3 672.83 342.13 672.37 341.86 671.7 340.71 672.69"/><path class="cls-22" d="M342.13,672.37l.17.46h.19l.37-.69a.44.44,0,0,1,.3-.24l0-.1Z"/><polygon class="cls-22" points="342.25 671.36 341.86 671.7 342.13 672.37 343.19 671.81 342.13 671.72 342.25 671.36"/><polygon class="cls-22" points="342.25 671.36 342.13 671.72 343.19 671.81 342.55 671.1 342.25 671.36"/><path class="cls-23" d="M368.06,728.68c10.32-47.72,47.65-74.81,81.17-99.14,36.32-26.36,67.69-49.12,67.69-94.11h39.39c0,65.07-44.6,97.43-83.94,126C444.07,682,418.79,700.3,409,728.68Z"/><g class="cls-24"><path class="cls-25" d="M492.06,721.08c-11.39-24.17-34.6-41-60.29-59.66-39.35-28.56-83.94-60.92-83.94-126,0-47.21,23.48-77.21,51.4-101,10.56-9,43.31,15.9,37.49,20.36-28,21.43-49.51,43.44-49.51,80.67,0,45,31.37,67.75,67.69,94.11,27.84,20.21,58.31,42.32,73.75,76.57C531.82,713.13,493.27,723.66,492.06,721.08Z"/><ellipse class="cls-26" cx="512.34" cy="552.76" rx="34.08" ry="11.86" transform="translate(-207.74 330.23) rotate(-30)"/></g><path class="cls-27" d="M385,535.44c0-110.05,151.63-110.05,151.63-220.1"/><path class="cls-28" d="M385,535.44c0-110.05,151.63-110.05,151.63-220.1"/><path class="cls-29" d="M515.09,728.68c-9.77-29.41-35.59-48.15-64.5-69.13-38.9-28.23-83-60.23-83-124.11h34.76c0,46.16,31.81,69.25,68.64,96,33,24,69.79,50.65,80.14,97.26Z"/><path class="cls-30" d="M385,315.34c0,110.05,151.63,110.05,151.63,220.09"/><path class="cls-31" d="M385,315.34c0,110.05,151.63,110.05,151.63,220.09"/><line class="cls-32" x1="460.8" y1="711.51" x2="526.83" y2="711.51"/><line class="cls-33" x1="495.28" y1="689.5" x2="512.34" y2="689.5"/><line class="cls-34" x1="460.8" y1="672.01" x2="474.93" y2="672.01"/><line class="cls-35" x1="443.77" y1="623.29" x2="457.9" y2="623.29"/><line class="cls-35" x1="460.8" y1="689.5" x2="481.14" y2="689.5"/><line class="cls-36" x1="460.8" y1="601.47" x2="409.25" y2="601.47"/><line class="cls-37" x1="460.8" y1="579.46" x2="394.76" y2="579.46"/><line class="cls-38" x1="460.8" y1="557.45" x2="387.2" y2="557.45"/><line class="cls-39" x1="413.49" y1="535.44" x2="384.98" y2="535.44"/><line class="cls-40" x1="460.8" y1="535.44" x2="428.6" y2="535.44"/><line class="cls-41" x1="460.8" y1="513.43" x2="387.2" y2="513.43"/><line class="cls-42" x1="460.8" y1="491.42" x2="394.76" y2="491.42"/><line class="cls-43" x1="460.8" y1="469.41" x2="409.25" y2="469.41"/><path class="cls-44" d="M512.39,497.23c-3.44,5.17,2.83,17.9,11.21,19.66,2.68.56,7,.29,8.38-2.18a6.18,6.18,0,0,0-.31-5.57c-1-1.88-2.55-2.06-3-4-.24-1.13.14-1.61-.35-2.68s-1-1.12-1.88-2.13c-1.24-1.49-.86-2.33-1.71-3.58-1.44-2.1-4.39-2.42-5-2.48C517,494,513.79,495.13,512.39,497.23Z"/><path class="cls-44" d="M514,516.79h4.34V505.85h-8.59c-.67.63-3.34,3.3-3.15,7,.05,1,.15,2.89,1.62,4S512,518,514,516.79Z"/><path class="cls-45" d="M495.23,578.57c.4.42.5.13,1.07.06s.55-.29,1.12-.36.6.16,1.17.1.54-.3,1.11-.36.6.15,1.18.09.74.19,1-.31.12-.7,0-1.45-.32-.73-.41-1.48.14-.77.06-1.52-.32-.73-.41-1.48.14-.78.05-1.53.16-.87-.37-1.41-.5-.13-1.07-.06-.54.29-1.11.36-.6-.16-1.17-.1-.55.3-1.12.36-.6-.15-1.17-.09-.74-.19-1,.31-.13.7,0,1.45.31.73.4,1.48-.14.77-.05,1.52.31.73.4,1.48a6.37,6.37,0,0,1-.05,1.51C494.83,577.9,494.71,578,495.23,578.57Z"/><path class="cls-45" d="M481,566.89c.15.49.35.3.83.48s.56,0,1,.17.42.37.9.55.56,0,1.05.17.42.37.9.55.52.46,1,.18.39-.52.62-1.16.05-.71.28-1.35.43-.56.67-1.2,0-.71.28-1.35.43-.57.66-1.21.48-.64.28-1.29c-.15-.49-.35-.3-.84-.48s-.55,0-1-.17-.41-.37-.9-.55-.55,0-1-.17-.42-.37-.91-.55-.51-.46-.95-.18-.39.52-.63,1.16,0,.71-.28,1.35-.42.56-.66,1.2,0,.71-.28,1.35a6.39,6.39,0,0,1-.66,1.2C481,566.18,480.8,566.24,481,566.89Z"/><path class="cls-2" d="M503.06,581.19a4.07,4.07,0,0,1-2.23,1.25,3.94,3.94,0,0,1-2-.16,25.75,25.75,0,0,1-3,2.21,11.42,11.42,0,0,1-4.94,1.93,2.76,2.76,0,0,1-1.84-.33,2.66,2.66,0,0,1-1-1l0-1.32c.76-.58,1.57-1.24,2.39-2a29.15,29.15,0,0,0,3.21-3.45l.42-.78.3-2.48,8.29-1C502.72,576.4,502.89,578.79,503.06,581.19Z"/><g class="cls-46"><path class="cls-2" d="M503.06,579.92a4,4,0,0,1-2.23,1.26,3.92,3.92,0,0,1-2-.17,24.63,24.63,0,0,1-3,2.21,11.65,11.65,0,0,1-4.94,1.94,2.76,2.76,0,0,1-3.18-2.26s5.16-4.53,5.88-5.89l.42-.77.3-2.48,8.29-1Q502.8,576.33,503.06,579.92Z"/><path class="cls-2" d="M494,577.5c-2.16,2.3-3.14,3.55-3,3.75s1.78-.8,4.76-3.06c0-1.66,0-3.31.07-5l-1.87,0Z"/><circle class="cls-2" cx="499.49" cy="574.61" r="2.41"/></g><path class="cls-2" d="M486.39,572.54a3.64,3.64,0,0,1-2.27.4,3.53,3.53,0,0,1-1.68-.73,23.69,23.69,0,0,1-3.21,1,10.5,10.5,0,0,1-4.78.19,2.56,2.56,0,0,1-1.47-.83,2.41,2.41,0,0,1-.57-1.2l.37-1.13c.82-.27,1.7-.59,2.62-1a27.65,27.65,0,0,0,3.76-2l.58-.54,1-2,7.36,1.59Z"/><g class="cls-47"><path class="cls-2" d="M486.76,571.46a3.64,3.64,0,0,1-2.26.41,3.57,3.57,0,0,1-1.68-.74,22,22,0,0,1-3.22,1,10.45,10.45,0,0,1-4.77.19,2.49,2.49,0,0,1-2.05-2.87s5.74-2.33,6.76-3.26l.58-.54,1-2,7.36,1.59Z"/><path class="cls-2" d="M479.74,566.7q-3.76,2-3.63,2.32c.11.24,1.76-.15,5-1.2l1.53-4.21L481,563Z"/><circle class="cls-2" cx="485.3" cy="565.88" r="2.18"/></g><path class="cls-48" d="M508.5,516.16q-2.08,2.67-4.2,5.64c-1.59,2.24-3.06,4.44-4.43,6.57q-1.94-1.92-3.88-4c-2.34-2.45-3.37-3.21-5.47-5.6L487.78,521c1.8,2.63,2.61,3.7,4.81,6.5,1.65,2.1,3.29,4.08,4.9,5.94a2.94,2.94,0,0,0,3.55.7c1-.51,2-1.07,3.11-1.69a54.12,54.12,0,0,0,5.36-3.58Z"/><path class="cls-49" d="M506.56,546.79a42.33,42.33,0,0,0,5.27-.57,43.83,43.83,0,0,0,5.41-1.32q.59-14.14,1.19-28.29a7.54,7.54,0,0,0-11.38-.46Z"/><path class="cls-50" d="M508.94,523c.6-2.22,2-3.15,3.25-6.46a18.88,18.88,0,0,0,.88-3.17l8.85-.47a4.46,4.46,0,0,0,1.52,1.58c1.48.9,2.76.46,4.65.88a8.73,8.73,0,0,1,3.55,1.79q-.76,13.18-1.54,26.37H508.39c2.28-6.93,1.93-11.61,1.12-14.68C509.06,527.12,508.3,525.3,508.94,523Z"/><path class="cls-51" d="M513.85,513.78a10.78,10.78,0,0,0,3.6.61,10.55,10.55,0,0,0,4.24-.88,8.4,8.4,0,0,1-1-2.2,7.9,7.9,0,0,1-.27-2.91l-6.84.92Z"/><path class="cls-52" d="M511.33,536.6c-.21.55,1.54,1.92-1.85.45a2.79,2.79,0,0,1-1.64-1.14c-.53-.9.16-1.61-.44-2.39-.33-.42-.7-.44-.91-1-.14-.37-.16-.86,0-.95s.5.4,1.35,1.11a19.65,19.65,0,0,1,1.61,1.17c.26.26.4.44,1,1a5.39,5.39,0,0,1,.42.44C511.05,535.57,511.5,536.16,511.33,536.6Z"/><path class="cls-52" d="M510.41,498.8c-.2.72-.38,1.51-.53,2.37a22.41,22.41,0,0,0-.31,3.25,8.87,8.87,0,0,1-.4.84c-.59,1.1-1.24,1.78-1,2,0,0,.85.26,1,.36.3.2.35,2.66,1,3.61,1.3,1.93,8,1.81,9.82-1.39a4.13,4.13,0,0,0,.49-2.52,1.54,1.54,0,0,1-.36-.1,3,3,0,0,1-1.52-1.23,6,6,0,0,0-.92-2.27,7,7,0,0,0-4.4-2.71,6.52,6.52,0,0,1-1.35-.29,3.09,3.09,0,0,1-.39-.17A2.35,2.35,0,0,1,510.41,498.8Z"/><polyline class="cls-44" points="513.02 539.49 503.72 529.67 497.05 531.16 489.72 529.05 498.65 538.2 513.02 539.49"/><path class="cls-52" d="M503.3,533.7c.58-.49,2.87.31,2.87.31l-.09,1.28.57,2.56s-2.59-.78-3.15-1.41a1.85,1.85,0,0,1-.23-.67s-.39-.29-.49-.39-.43-1-.19-1.23c.09-.1.54,0,.54,0S503.21,533.77,503.3,533.7Z"/><path class="cls-52" d="M509.07,535.11a6.78,6.78,0,0,1-1.84-.55c-.47-.22-.85-.45-1.16-.55a.65.65,0,0,0-.53,0,.76.76,0,0,0-.37.51c-.07.38.26.51.37,1.1s-.09.61.07.86.42.18.62.46,0,.45.17.69c.25.43,1.11.41,1.42.4a6.75,6.75,0,0,1,3.17.89,3.32,3.32,0,0,0,0-1.28,3.74,3.74,0,0,0-1.66-2.24Z"/><path class="cls-53" d="M528.3,549.22a10,10,0,0,1-11.17,3.32l-22.66-7.73c-.24,1.87-.58,3.89-1,6-.51,2.35-1.05,4.24-1.79,6.78-.5,1.76-1.28,4.46-2,7.1-1.71-.36-3.48-.78-5.28-1.25-.81-.21-1.6-.42-2.37-.64,1.22-6.09,2.25-11.21,3.29-16.45a14.92,14.92,0,0,1,2.77-7,14.32,14.32,0,0,1,7.38-4.7l34.7,8.88V544A8.46,8.46,0,0,1,528.3,549.22Z"/><path class="cls-44" d="M522.23,516.35h4.34V505.41l-8.93-1.66a5.4,5.4,0,0,1,.4,2.64c-.32,2.78-2.92,3.45-3.21,6a4.59,4.59,0,0,0,1.62,4C517.91,517.58,520.19,517.54,522.23,516.35Z"/><path class="cls-49" d="M521,546.79a42.53,42.53,0,0,0,5.27-.57,43.2,43.2,0,0,0,5.4-1.32l1.2-28.29a7.55,7.55,0,0,0-11.39-.46Z"/><path class="cls-3" d="M517.13,552.54c-2.74.14-5.7.17-8.85,0-2-.08-3.9-.22-5.71-.4h-1.46c.24,1.48.48,3.23.64,5.19.13,1.57.19,2.92.22,4s0,1.57,0,1.83c0,1.43.05,3.75.26,7.7a10.42,10.42,0,0,1-3.8,1.33,10.2,10.2,0,0,1-4.53-.41q-1.26-9.67-2.53-19.35l-.08-4.92a5.5,5.5,0,0,1,2.86-4,6.47,6.47,0,0,1,3.51-.67Z"/><g class="cls-54"><path class="cls-55" d="M523.07,556.92c.35-.7-10.45-3.62-14.49-13.32-1.84-4.43-.85-6.85-3.25-11.93a27.37,27.37,0,0,0-8.31-10c-.64,2.3-2.89,11.51,2,20.7C506.26,555.77,522.65,557.75,523.07,556.92Z"/></g><path class="cls-56" d="M527.18,516.88c-2,1.55-1.16,6.18-.31,13.75.31,2.81.52,5.1.65,6.55-5.51-.88-10.83-.84-16.34-1.73a10.27,10.27,0,0,0-.73,3c6.41,1.57,12.21,3.7,18.32,4.79a3.88,3.88,0,0,0,4.5-3.27c.42-2.91.62-5.45.72-7.53h0c0-13.05-1.69-14.81-2.35-15.34a3.92,3.92,0,0,0-2.67-1A3.68,3.68,0,0,0,527.18,516.88Z"/><rect class="cls-44" x="509.03" y="497.37" width="9.35" height="4.64" transform="translate(1027.4 999.38) rotate(-180)"/><polygon class="cls-52" points="490.31 519.38 490.56 517.27 489.41 514.96 489.39 513.25 488.42 513.1 488 515.33 487.66 517.72 488 520.82 490.31 519.38"/><ellipse class="cls-57" cx="486.84" cy="507.75" rx="3.4" ry="4.58"/><line class="cls-58" x1="486.84" y1="512.33" x2="486.84" y2="519.95"/><polygon class="cls-52" points="488.3 514.15 485.42 513.54 484.35 515.4 484.18 518.87 488.3 519.76 489.19 517.77 488.3 514.15"/><polygon class="cls-52" points="487.78 520.96 485.25 519.98 484.18 518.87 487.78 517.03 489.19 520.09 487.78 520.96"/><polygon class="cls-49" points="504.79 501.18 529.1 501.18 525.64 496.4 508.1 496.4 504.79 501.18"/><path class="cls-59" d="M525.61,496.44a8.78,8.78,0,0,0-8.74-7.94c-4.72,0-7.85,4.2-8.63,7.23a6.79,6.79,0,0,0-.14.67"/><path class="cls-22" d="M245.85,728.68l-4.9-6a1.84,1.84,0,1,1,2.85-2.32l6.79,8.36Z"/><path class="cls-60" d="M266.06,728.68V621.34a14.48,14.48,0,0,1,14.49-14.48h0A14.48,14.48,0,0,0,295,592.37V510.13"/><path class="cls-60" d="M237.09,552.45v14.1A14.49,14.49,0,0,0,251.58,581h0a14.48,14.48,0,0,1,14.48,14.49v53.23"/><circle class="cls-60" cx="237.09" cy="539.01" r="15.54"/><circle class="cls-61" cx="237.09" cy="539.01" r="8.85"/><circle class="cls-60" cx="295.03" cy="495.16" r="15.54"/><circle class="cls-61" cx="295.03" cy="495.16" r="8.85"/><path class="cls-62" d="M343.07,441.84l-5.37-5.36a1.23,1.23,0,0,1,1.73-1.74l5.37,5.37,5.37-5.37a1.23,1.23,0,0,1,1.73,1.74l-5.37,5.36,5.37,5.37a1.23,1.23,0,0,1-1.7,1.77l0,0-5.37-5.37L339.43,449a1.23,1.23,0,0,1-1.73-1.74Z"/><path class="cls-62" d="M279.06,371l6.24-6.24a1.22,1.22,0,0,1,1.73,0l6.24,6.24a1.23,1.23,0,1,1-1.71,1.76l0,0-5.37-5.37-5.36,5.37a1.23,1.23,0,0,1-1.74-1.73Z"/><path class="cls-62" d="M587.72,523.2,594,517a1.22,1.22,0,0,1,1.73,0l6.24,6.23a1.23,1.23,0,0,1-1.7,1.77l0,0-5.37-5.37-5.37,5.37a1.23,1.23,0,0,1-1.73-1.74Z"/><path class="cls-63" d="M343.56,670.36a1.85,1.85,0,0,0-2.49-.76,46,46,0,0,0-17.13,15.3c-7.8,11.92-9.31,27.73-4.85,43.78h3.81c-4.52-15.37-3.26-30.49,4.12-41.76a42.29,42.29,0,0,1,15.78-14.07A1.84,1.84,0,0,0,343.56,670.36Z"/><path class="cls-22" d="M576.41,686.14l9.65-61.07c-8.94,3.58-16.22,0-21.07,6.33-6,7.9,3.38,16.77-2.13,29.13-3.65,8.19-9.34,9.69-15.48,14.21L539.1,727.1Z"/><path class="cls-22" d="M651.74,603.44l5.69-36.05-.5.22c-11.29,5.39-8.09,18.55-19.75,24.72a16,16,0,0,1-5.56,1.8l-6,38Z"/><path class="cls-22" d="M690.84,596.62c.84-8.54-1.53-17.92-8-24l-26.24,28.81Z"/><path class="cls-22" d="M681.09,571.22c-5.66-4.32-14.06-6.68-21.26-4.69l-5.36,33.91Z"/><path class="cls-22" d="M622.87,635.13l6.46-40.88c-6.18-.1-11.42-3.34-18.74.48-11.75,6.14-7.24,19.21-19.92,27.87-.73.5-1.45.93-2.16,1.32l-9.37,59.22Z"/><path class="cls-22" d="M627.7,633.15l36.83-5.2c3-9.31,15.54-8.34,22.2-18.77a27.89,27.89,0,0,0,3.8-10.26l-36.32,5.13Z"/><path class="cls-22" d="M664,630.27l-38.7,5.47-44.1,48.42,50.23-7.09c10.74-17.81,35.24-14.82,38.06-27.8C671.19,641.64,663.33,637.74,664,630.27Z"/><path class="cls-22" d="M541.2,728.12l66.94-9.45c7.44-4.53,14.2-10.72,18.07-19.3,4.38-9.71.63-12.62,3.95-19.86l-51.28,7.24Z"/><path class="cls-22" d="M583.27,728.68a106.68,106.68,0,0,0,19.26-7l-49.29,7Z"/><path class="cls-22" d="M540.61,681.3c-10.49,13.39-14,36.79-4.19,47.38h.17l8.2-51.84A34.36,34.36,0,0,0,540.61,681.3Z"/><path class="cls-64" d="M654.26,601.78l2.31-.32,26.24-28.81c-.32-.29-.64-.58-1-.86l-.75-.57-26.62,29.22Z"/><polygon class="cls-64" points="627.7 633.15 654.21 604.05 651.58 604.42 651.74 603.44 625.61 632.13 625.39 633.47 627.7 633.15"/><polygon class="cls-64" points="576.41 686.14 539.1 727.1 538.89 728.44 541.2 728.12 578.88 686.75 576.25 687.12 576.41 686.14"/><polygon class="cls-64" points="622.87 635.13 579.14 683.14 578.93 684.48 581.24 684.16 625.34 635.74 622.72 636.11 622.87 635.13"/><path class="cls-22" d="M540.69,728.68h12.55l49.29-7c1.89-.93,3.77-1.94,5.61-3.05l-66.94,9.45Z"/><path class="cls-64" d="M547.38,674.74c-.86.64-1.72,1.33-2.59,2.1l-8.2,51.84h1.08l1.43-1.58Z"/><polygon class="cls-64" points="538.89 728.44 539.1 727.1 537.67 728.68 540.69 728.68 541.2 728.12 538.89 728.44"/><path class="cls-64" d="M578.88,686.75l51.28-7.24a22.44,22.44,0,0,1,1.12-2.15l.19-.29-50.23,7.09Z"/><path class="cls-64" d="M579.14,683.14l9.37-59.22a23.28,23.28,0,0,1-2.45,1.15l-9.65,61.07Z"/><polygon class="cls-64" points="579.14 683.14 576.41 686.14 576.25 687.12 578.88 686.75 581.24 684.16 578.93 684.48 579.14 683.14"/><path class="cls-64" d="M625.61,632.13l6-38a16.21,16.21,0,0,1-2.29.12l-6.46,40.88Z"/><path class="cls-64" d="M625.34,635.74l38.7-5.47a11.38,11.38,0,0,1,.33-1.81c0-.18.1-.34.16-.51l-36.83,5.2Z"/><polygon class="cls-64" points="625.39 633.47 625.61 632.13 622.87 635.13 622.72 636.11 625.34 635.74 627.7 633.15 625.39 633.47"/><path class="cls-64" d="M654.47,600.44l5.36-33.91a19.08,19.08,0,0,0-2.4.86l-5.69,36.05Z"/><path class="cls-64" d="M654.21,604.05l36.32-5.13c.13-.76.23-1.53.31-2.3l-34.27,4.84Z"/><polygon class="cls-64" points="654.21 604.05 656.57 601.46 654.26 601.78 654.47 600.44 651.74 603.44 651.58 604.42 654.21 604.05"/><rect class="cls-65" x="474.38" y="256.41" width="219.43" height="43.05" rx="5.19"/><line class="cls-7" x1="523.65" y1="277.94" x2="628.35" y2="277.94"/><rect class="cls-66" x="655.21" y="265.27" width="24.19" height="24.19" rx="12.1"/><path class="cls-67" d="M479.48,256.41H482a0,0,0,0,1,0,0v43a0,0,0,0,1,0,0H479.1a4.72,4.72,0,0,1-4.72-4.72V261.51a5.1,5.1,0,0,1,5.1-5.1Z"/><path class="cls-9" d="M500.22,271.63a2.17,2.17,0,0,0,.69.12,2.27,2.27,0,0,0,.69-.12,2.21,2.21,0,1,0-1.38,0Z"/><path class="cls-9" d="M508.66,270a2.21,2.21,0,0,0,0,4.42,2.11,2.11,0,0,0,.61-.1,2.2,2.2,0,0,0-.61-4.32Z"/><path class="cls-9" d="M501.65,282.1a2,2,0,0,0-.74-.14,2.17,2.17,0,0,0-.69.12,2.21,2.21,0,1,0,1.43,0Z"/><g class="cls-10"><path class="cls-9" d="M500.38,282.13v0h0V271.23h1.06v8a5.58,5.58,0,0,1,3.35-1.81c3.32-.66,3.33-3,3.33-3.83,0-.13,0-.22,0-.28l1.05.13v.16c0,2.67-1.42,4.3-4.18,4.85-3.26.65-3.54,2.91-3.56,3.46v.14Z"/></g></g></g></svg>